<?xml version="1.0" standalone="no"?>
<!DOCTYPE svg PUBLIC "-//W3C//DTD SVG 20010904//EN"
 "http://www.w3.org/TR/2001/REC-SVG-20010904/DTD/svg10.dtd">
<svg version="1.0" xmlns="http://www.w3.org/2000/svg"
 width="1600.000000pt" height="1600.000000pt" viewBox="0 0 1600.000000 1600.000000"
 preserveAspectRatio="xMidYMid meet">
<metadata>
Created by potrace 1.14, written by Peter Selinger 2001-2017
</metadata>
<g transform="translate(0.000000,1600.000000) scale(0.100000,-0.100000)"
fill="#000000" stroke="none">
<path d="M330 15980 c-105 -28 -170 -66 -227 -130 -33 -37 -73 -126 -88 -195
-11 -49 -13 -1430 -13 -7650 0 -6700 1 -7598 15 -7660 38 -180 143 -286 328
-332 48 -12 15230 -14 15295 -2 183 34 318 166 348 343 4 23 7 3470 7 7661 l0
7620 -23 70 c-41 123 -94 185 -207 240 -38 19 -86 38 -105 42 -19 4 -3462 8
-7650 9 -7262 2 -7618 1 -7680 -16z"/>
</g>
</svg>
